<?xml version="1.0" encoding="utf-8"?>
<!-- Generator: Adobe Illustrator 26.0.0, SVG Export Plug-In . SVG Version: 6.00 Build 0)  -->
<svg version="1.1" id="Layer_1" xmlns="http://www.w3.org/2000/svg" xmlns:xlink="http://www.w3.org/1999/xlink" x="0px" y="0px"
	 viewBox="0 0 2348.1 1052.2" style="enable-background:new 0 0 2348.1 1052.2;" xml:space="preserve">
<style type="text/css">
	.st0{enable-background:new    ;}
	.st1{fill:#CED4DA;}
	.st2{fill:none;stroke:#D82D0B;stroke-width:1.7458;stroke-miterlimit:10;}
	.st3{fill:#3E3F3F;}
	.st4{fill:#EA1818;}
	.st5{fill:#FFF915;}
	.st6{fill:#2B4BA5;}
</style>
<text transform="matrix(1 0 0 1 130.7318 -449.1477)" class="st1" style="font-family:'Montserrat-Black'; font-size:271.6093px;">R. Dominicana</text>
<g class="st0">
	<path class="st1" d="M601.7,779.8c-15.2,0-29.3-2.4-42.2-7.2c-12.9-4.8-24.2-11.6-33.7-20.5c-9.5-8.9-16.9-19.4-22.1-31.5
		c-5.3-12.1-7.9-25.5-7.9-40.2s2.6-28.1,7.9-40.2c5.2-12.1,12.6-22.6,22.1-31.5c9.5-8.9,20.7-15.7,33.7-20.5
		c12.9-4.8,27-7.2,42.2-7.2c18.6,0,35.2,3.3,49.6,9.8c14.4,6.5,26.3,15.9,35.7,28.2l-40.5,36.1c-5.6-7.1-11.8-12.5-18.6-16.4
		c-6.8-3.9-14.4-5.8-23-5.8c-6.7,0-12.8,1.1-18.2,3.3s-10.1,5.3-14,9.5c-3.9,4.2-6.9,9.2-9.1,15.1c-2.2,5.9-3.3,12.5-3.3,19.7
		c0,7.2,1.1,13.8,3.3,19.7c2.2,5.9,5.2,10.9,9.1,15.1c3.9,4.2,8.6,7.3,14,9.5s11.5,3.3,18.2,3.3c8.5,0,16.2-1.9,23-5.8
		c6.8-3.9,13-9.4,18.6-16.4l40.5,36.1c-9.4,12.1-21.3,21.5-35.7,28.1C636.9,776.5,620.3,779.8,601.7,779.8z"/>
	<path class="st1" d="M778,778.1c-16.8,0-31.7-3.3-44.7-9.9c-12.9-6.6-23.1-15.7-30.6-27.3c-7.4-11.6-11.1-24.9-11.1-39.9
		c0-15,3.7-28.3,11.1-39.9c7.4-11.6,17.6-20.6,30.6-27.2c12.9-6.5,27.8-9.8,44.7-9.8s31.8,3.3,44.8,9.8s23.2,15.6,30.6,27.2
		c7.3,11.6,11,24.9,11,39.9c0,15-3.7,28.3-11,39.9c-7.3,11.6-17.5,20.7-30.6,27.3C809.8,774.8,794.8,778.1,778,778.1z M778,730.3
		c4.5,0,8.6-1.1,12.2-3.3c3.6-2.2,6.5-5.5,8.7-9.9c2.2-4.4,3.3-9.8,3.3-16.2c0-6.5-1.1-11.9-3.3-16.2c-2.2-4.3-5.1-7.5-8.7-9.6
		c-3.6-2.2-7.7-3.3-12.2-3.3c-4.5,0-8.6,1.1-12.2,3.3c-3.6,2.2-6.5,5.4-8.7,9.6c-2.2,4.3-3.3,9.6-3.3,16.2c0,6.3,1.1,11.7,3.3,16.2
		c2.2,4.4,5.1,7.7,8.7,9.9C769.4,729.2,773.4,730.3,778,730.3z"/>
	<path class="st1" d="M883.6,775.4V573.9H945v201.5H883.6z"/>
	<path class="st1" d="M1050.7,778.1c-16.8,0-31.7-3.3-44.7-9.9c-12.9-6.6-23.1-15.7-30.6-27.3c-7.4-11.6-11.1-24.9-11.1-39.9
		c0-15,3.7-28.3,11.1-39.9c7.4-11.6,17.6-20.6,30.6-27.2c12.9-6.5,27.8-9.8,44.7-9.8s31.8,3.3,44.8,9.8s23.2,15.6,30.6,27.2
		c7.3,11.6,11,24.9,11,39.9c0,15-3.7,28.3-11,39.9c-7.3,11.6-17.5,20.7-30.6,27.3C1082.4,774.8,1067.5,778.1,1050.7,778.1z
		 M1050.7,730.3c4.5,0,8.6-1.1,12.2-3.3c3.6-2.2,6.5-5.5,8.7-9.9c2.2-4.4,3.3-9.8,3.3-16.2c0-6.5-1.1-11.9-3.3-16.2
		c-2.2-4.3-5.1-7.5-8.7-9.6c-3.6-2.2-7.7-3.3-12.2-3.3c-4.5,0-8.6,1.1-12.2,3.3c-3.6,2.2-6.5,5.4-8.7,9.6c-2.2,4.3-3.3,9.6-3.3,16.2
		c0,6.3,1.1,11.7,3.3,16.2c2.2,4.4,5.1,7.7,8.7,9.9C1042.1,729.2,1046.1,730.3,1050.7,730.3z"/>
	<path class="st1" d="M1353,624.1c11.2,0,21.3,2.3,30.3,6.9c9,4.6,16,11.8,21.2,21.6c5.2,9.8,7.7,22.5,7.7,38v84.7h-61.4v-74.1
		c0-9.2-1.5-15.8-4.6-19.7c-3.1-3.9-7.1-5.8-12-5.8c-3.6,0-6.9,0.9-9.8,2.7c-2.9,1.8-5.2,4.7-6.9,8.6c-1.7,3.9-2.6,9.2-2.6,15.9
		v72.5h-61.4v-74.1c0-9.2-1.5-15.8-4.3-19.7c-2.9-3.9-7-5.8-12.2-5.8c-3.6,0-6.9,0.9-9.8,2.7c-2.9,1.8-5.2,4.7-6.9,8.6
		c-1.7,3.9-2.6,9.2-2.6,15.9v72.5h-61.4V626.8h58.4v42.6l-12-12c5.6-11.2,13.1-19.6,22.5-25.1c9.4-5.5,19.9-8.3,31.5-8.3
		c13,0,24.6,3.4,34.6,10.2c10,6.8,16.8,17.5,20.2,32.2l-18.7-3c5.4-12.3,13.4-22,23.8-28.9C1327.1,627.6,1339.2,624.1,1353,624.1z"
		/>
	<path class="st1" d="M1438.8,775.4V573.9h61.4v72.8l-2.7,54.3l-0.3,54.3v20.1H1438.8z M1537.9,778.1c-13.6,0-24.5-2.7-32.9-8.1
		c-8.3-5.4-14.4-13.9-18.1-25.3c-3.7-11.4-5.6-26-5.6-43.7c0-17.6,2-32,6-43.3c4-11.3,10.2-19.7,18.6-25.3
		c8.4-5.5,19.1-8.3,31.9-8.3c13,0,25,3.1,35.9,9.2c10.9,6.2,19.6,15,26.1,26.5c6.5,11.5,9.8,25.2,9.8,41.1c0,15.9-3.3,29.7-9.8,41.1
		c-6.5,11.5-15.2,20.4-26.1,26.6S1551,778.1,1537.9,778.1z M1523.3,730.3c4.5,0,8.6-1.1,12.2-3.3c3.6-2.2,6.5-5.5,8.7-9.9
		c2.2-4.4,3.3-9.8,3.3-16.2c0-6.5-1.1-11.9-3.3-16.2c-2.2-4.3-5.1-7.5-8.7-9.6c-3.6-2.2-7.7-3.3-12.2-3.3c-4.5,0-8.6,1.1-12.2,3.3
		c-3.6,2.2-6.5,5.4-8.7,9.6c-2.2,4.3-3.3,9.6-3.3,16.2c0,6.3,1.1,11.7,3.3,16.2c2.2,4.4,5.1,7.7,8.7,9.9
		C1514.7,729.2,1518.7,730.3,1523.3,730.3z"/>
	<path class="st1" d="M1659.6,614.9c-11.2,0-20.2-3-26.9-9c-6.7-6-10-13.4-10-22.3c0-8.9,3.3-16.3,10-22.3c6.7-6,15.7-9,26.9-9
		c11.2,0,20.2,2.8,26.9,8.4c6.7,5.6,10,12.9,10,21.7c0,9.4-3.4,17.2-10,23.2C1679.8,611.9,1670.8,614.9,1659.6,614.9z M1628.9,775.4
		V626.8h61.4v148.6H1628.9z"/>
	<path class="st1" d="M1765.3,778.1c-12.1,0-22.3-2.1-30.4-6.2c-8.1-4.2-14.3-9.7-18.5-16.7c-4.2-7-6.2-14.7-6.2-23.2
		c0-9.6,2.4-17.7,7.3-24.4c4.9-6.7,12.4-11.8,22.4-15.2c10-3.4,22.8-5.2,38.2-5.2h31v29.6h-21.2c-6.5,0-11.3,1-14.3,3.1
		c-3,2.1-4.5,5.2-4.5,9.4c0,3.4,1.3,6.3,3.9,8.6c2.6,2.3,6.2,3.4,10.7,3.4c4.2,0,8-1.1,11.5-3.4c3.5-2.3,6.1-5.8,7.7-10.7l7.9,18.2
		c-2.4,11-7.3,19.3-14.9,24.7C1788.3,775.4,1778.1,778.1,1765.3,778.1z M1807.4,775.4v-26.3l-4.3-7.1v-50c0-7.2-2.2-12.8-6.7-16.6
		c-4.4-3.8-11.6-5.7-21.6-5.7c-6.7,0-13.5,1-20.4,3.1c-6.9,2.1-12.8,4.9-17.7,8.6l-19.6-40.5c8.7-5.4,19.1-9.6,31.2-12.5
		c12.1-2.9,24-4.3,35.6-4.3c25.5,0,45.3,5.7,59.3,17.1c14,11.4,21,29.5,21,54.3v79.9H1807.4z"/>
</g>
<rect x="1718.6" y="1105" class="st2" width="60.4" height="544.8"/>
<rect x="0.7" y="949.5" class="st3" width="2349" height="103.9"/>
<g>
	<g>
		<rect x="927.3" y="339.3" class="st4" width="522.9" height="107.2"/>
	</g>
	<g>
		<rect x="927.3" y="118.7" class="st5" width="522.9" height="149.6"/>
	</g>
	<g>
		<rect x="927.2" y="268.3" class="st6" width="523" height="88.9"/>
	</g>
</g>
</svg>
