<?xml version="1.0" encoding="utf-8"?>
<!-- Generator: Adobe Illustrator 26.0.0, SVG Export Plug-In . SVG Version: 6.00 Build 0)  -->
<svg version="1.1" id="Layer_1" xmlns="http://www.w3.org/2000/svg" xmlns:xlink="http://www.w3.org/1999/xlink" x="0px" y="0px"
	 viewBox="0 0 2348.1 1052.2" style="enable-background:new 0 0 2348.1 1052.2;" xml:space="preserve">
<style type="text/css">
	.st0{enable-background:new    ;}
	.st1{fill:#CED4DA;}
	.st2{fill:#3E3F3F;}
	.st3{fill:#DB2E2E;}
	.st4{fill:#FFFFFF;}
	.st5{fill:#2E4593;}
</style>
<text transform="matrix(1 0 0 1 849.7514 1429.9271)" class="st1" style="font-family:'Montserrat-Black'; font-size:271.6093px;">Perú</text>
<g class="st0">
	<path class="st1" d="M903.1,731.9h95.1v48.3H840.1V590.1h154.5v48.3h-91.5V731.9z M898.8,660.7h84.7v46.2h-84.7V660.7z"/>
	<path class="st1" d="M1085.9,731.9h95.1v48.3h-158.1V590.1h154.5v48.3h-91.5V731.9z M1081.6,660.7h84.7v46.2h-84.7V660.7z"/>
	<path class="st1" d="M1296.7,784.6c-29.2,0-51.9-7.9-68.2-23.6c-16.3-15.8-24.4-37.8-24.4-66.3V590.1h64.1v102.7
		c0,14.5,2.6,24.8,7.9,30.8c5.2,6.1,12.3,9.1,21.2,9.1c9.1,0,16.2-3,21.3-9.1c5.2-6.1,7.7-16.3,7.7-30.8V590.1h63v104.6
		c0,28.4-8.1,50.5-24.4,66.3C1348.6,776.7,1325.8,784.6,1296.7,784.6z"/>
	<path class="st1" d="M1509.6,784.6c-29.2,0-51.9-7.9-68.2-23.6c-16.3-15.8-24.4-37.8-24.4-66.3V590.1h64.1v102.7
		c0,14.5,2.6,24.8,7.9,30.8c5.2,6.1,12.3,9.1,21.2,9.1c9.1,0,16.2-3,21.3-9.1c5.2-6.1,7.7-16.3,7.7-30.8V590.1h63v104.6
		c0,28.4-8.1,50.5-24.4,66.3C1561.5,776.7,1538.8,784.6,1509.6,784.6z"/>
</g>
<rect x="0.7" y="949.5" class="st2" width="2349" height="103.9"/>
<g>
	<g>
		<g>
			<g>
				<g>
					<rect x="927.7" y="233.8" class="st3" width="531.9" height="25.4"/>
				</g>
				<g>
					<rect x="927.7" y="183.2" class="st3" width="531.9" height="25.3"/>
				</g>
				<g>
					<rect x="927.7" y="132.7" class="st3" width="531.9" height="25.3"/>
				</g>
				<g>
					<rect x="927.7" y="284.5" class="st3" width="531.9" height="25.4"/>
				</g>
				<g>
					<rect x="927.7" y="335" class="st3" width="531.9" height="25.4"/>
				</g>
				<g>
					<rect x="927.7" y="385.6" class="st3" width="531.9" height="25.3"/>
				</g>
				<g>
					<rect x="927.7" y="436.1" class="st3" width="531.9" height="25.3"/>
				</g>
			</g>
		</g>
		<g>
			<rect x="927.7" y="208.5" class="st4" width="531.9" height="25.3"/>
		</g>
		<g>
			<rect x="927.7" y="158" class="st4" width="531.9" height="25.3"/>
		</g>
		<g>
			<rect x="927.7" y="259.2" class="st4" width="531.9" height="25.3"/>
		</g>
		<g>
			<rect x="927.7" y="309.7" class="st4" width="531.9" height="25.3"/>
		</g>
		<g>
			<rect x="927.7" y="360.3" class="st4" width="531.9" height="25.3"/>
		</g>
		<g>
			<rect x="927.7" y="410.9" class="st4" width="531.9" height="25.3"/>
		</g>
	</g>
	<g>
		<rect x="927.7" y="133.5" class="st5" width="198.9" height="153.1"/>
	</g>
	<g>
		<g>
			<g>
				<g>
					<polygon class="st4" points="1093.9,163.9 1096,169.8 1091,166.1 1091,166.1 1091,166.1 1086,169.8 1088.1,163.9 1088.1,163.9 
						1088.1,163.9 1082.9,160.4 1089.1,160.4 1090.8,154.4 1092.8,160.4 1092.8,160.4 1092.8,160.4 1099.1,160.4 1093.9,163.9 
						1093.9,163.9 					"/>
				</g>
			</g>
			<g>
				<g>
					<polygon class="st4" points="1093.9,194.8 1096,200.8 1091,197.1 1091,197 1091,197.1 1086,200.8 1088.1,194.8 1088.1,194.8 
						1088.1,194.8 1082.9,191.3 1089.1,191.3 1090.8,185.3 1092.8,191.3 1092.8,191.3 1092.8,191.3 1099.1,191.3 1093.9,194.8 
						1093.9,194.8 					"/>
				</g>
			</g>
			<g>
				<g>
					<polygon class="st4" points="1093.9,225.8 1096,231.7 1091,228 1091,227.9 1091,228 1086,231.7 1088.1,225.8 1088.1,225.7 
						1088.1,225.7 1082.9,222.2 1089.1,222.2 1090.8,216.3 1092.8,222.2 1092.8,222.2 1092.8,222.2 1099.1,222.2 1093.9,225.7 
						1093.9,225.7 					"/>
				</g>
			</g>
			<g>
				<g>
					<polygon class="st4" points="1093.9,256.7 1096,262.6 1091,258.9 1091,258.9 1091,258.9 1086,262.6 1088.1,256.7 1088.1,256.7 
						1088.1,256.7 1082.9,253.2 1089.1,253.2 1090.8,247.2 1092.8,253.2 1092.8,253.2 1092.8,253.2 1099.1,253.2 1093.9,256.7 
						1093.9,256.7 					"/>
				</g>
			</g>
		</g>
		<g>
			<g>
				<g>
					<polygon class="st4" points="1061,163.9 1063.1,169.8 1058.1,166.1 1058.1,166.1 1058.1,166.1 1053,169.8 1055.2,163.9 
						1055.2,163.9 1055.2,163.9 1050,160.4 1056.2,160.4 1058,154.4 1059.9,160.4 1059.9,160.4 1059.9,160.4 1066.2,160.4 
						1061,163.9 1061,163.9 					"/>
				</g>
			</g>
			<g>
				<g>
					<polygon class="st4" points="1061,194.8 1063.1,200.8 1058.1,197.1 1058.1,197 1058.1,197.1 1053,200.8 1055.2,194.8 
						1055.2,194.8 1055.2,194.8 1050,191.3 1056.2,191.3 1058,185.3 1059.9,191.3 1059.9,191.3 1059.9,191.3 1066.2,191.3 
						1061,194.8 1061,194.8 					"/>
				</g>
			</g>
			<g>
				<g>
					<polygon class="st4" points="1061,225.8 1063.1,231.7 1058.1,228 1058.1,227.9 1058.1,228 1053,231.7 1055.2,225.8 
						1055.2,225.7 1055.2,225.7 1050,222.2 1056.2,222.2 1058,216.3 1059.9,222.2 1059.9,222.2 1059.9,222.2 1066.2,222.2 
						1061,225.7 1061,225.7 					"/>
				</g>
			</g>
			<g>
				<g>
					<polygon class="st4" points="1061,256.7 1063.1,262.6 1058.1,258.9 1058.1,258.9 1058.1,258.9 1053,262.6 1055.2,256.7 
						1055.2,256.7 1055.2,256.7 1050,253.2 1056.2,253.2 1058,247.2 1059.9,253.2 1059.9,253.2 1059.9,253.2 1066.2,253.2 
						1061,256.7 1061,256.7 					"/>
				</g>
			</g>
		</g>
		<g>
			<g>
				<g>
					<polygon class="st4" points="1028.1,163.9 1030.2,169.8 1025.2,166.1 1025.2,166.1 1025.2,166.1 1020.1,169.8 1022.2,163.9 
						1022.3,163.9 1022.3,163.9 1017.1,160.4 1023.3,160.4 1025,154.4 1027,160.4 1027,160.4 1027,160.4 1033.3,160.4 1028.1,163.9 
						1028.1,163.9 					"/>
				</g>
			</g>
			<g>
				<g>
					<polygon class="st4" points="1028.1,194.8 1030.2,200.8 1025.2,197.1 1025.2,197 1025.2,197.1 1020.1,200.8 1022.2,194.8 
						1022.3,194.8 1022.3,194.8 1017.1,191.3 1023.3,191.3 1025,185.3 1027,191.3 1027,191.3 1027,191.3 1033.3,191.3 1028.1,194.8 
						1028.1,194.8 					"/>
				</g>
			</g>
			<g>
				<g>
					<polygon class="st4" points="1028.1,225.8 1030.2,231.7 1025.2,228 1025.2,227.9 1025.2,228 1020.1,231.7 1022.2,225.8 
						1022.3,225.7 1022.3,225.7 1017.1,222.2 1023.3,222.2 1025,216.3 1027,222.2 1027,222.2 1027,222.2 1033.3,222.2 1028.1,225.7 
						1028.1,225.7 					"/>
				</g>
			</g>
			<g>
				<g>
					<polygon class="st4" points="1028.1,256.7 1030.2,262.6 1025.2,258.9 1025.2,258.9 1025.2,258.9 1020.1,262.6 1022.2,256.7 
						1022.3,256.7 1022.3,256.7 1017.1,253.2 1023.3,253.2 1025,247.2 1027,253.2 1027,253.2 1027,253.2 1033.3,253.2 1028.1,256.7 
						1028.1,256.7 					"/>
				</g>
			</g>
		</g>
		<g>
			<g>
				<g>
					<polygon class="st4" points="995.8,163.9 997.9,169.8 992.8,166.1 992.8,166.1 992.8,166.1 987.8,169.8 989.9,163.9 990,163.9 
						989.9,163.9 984.7,160.4 991,160.4 992.7,154.4 994.6,160.4 994.6,160.4 994.6,160.4 1000.9,160.4 995.7,163.9 995.7,163.9 
											"/>
				</g>
			</g>
			<g>
				<g>
					<polygon class="st4" points="995.8,194.8 997.9,200.8 992.8,197.1 992.8,197 992.8,197.1 987.8,200.8 989.9,194.8 990,194.8 
						989.9,194.8 984.7,191.3 991,191.3 992.7,185.3 994.6,191.3 994.6,191.3 994.6,191.3 1000.9,191.3 995.7,194.8 995.7,194.8 
											"/>
				</g>
			</g>
			<g>
				<g>
					<polygon class="st4" points="995.8,225.8 997.9,231.7 992.8,228 992.8,227.9 992.8,228 987.8,231.7 989.9,225.8 990,225.7 
						989.9,225.7 984.7,222.2 991,222.2 992.7,216.3 994.6,222.2 994.6,222.2 994.6,222.2 1000.9,222.2 995.7,225.7 995.7,225.7 
											"/>
				</g>
			</g>
			<g>
				<g>
					<polygon class="st4" points="995.8,256.7 997.9,262.6 992.8,258.9 992.8,258.9 992.8,258.9 987.8,262.6 989.9,256.7 990,256.7 
						989.9,256.7 984.7,253.2 991,253.2 992.7,247.2 994.6,253.2 994.6,253.2 994.6,253.2 1000.9,253.2 995.7,256.7 995.7,256.7 
											"/>
				</g>
			</g>
		</g>
		<g>
			<g>
				<g>
					<polygon class="st4" points="963.4,163.9 965.5,169.8 960.5,166.1 960.4,166.1 960.4,166.1 955.4,169.8 957.5,163.9 
						957.6,163.9 957.5,163.9 952.4,160.4 958.6,160.4 960.3,154.4 962.2,160.4 962.2,160.4 962.2,160.4 968.5,160.4 963.3,163.9 
						963.3,163.9 					"/>
				</g>
			</g>
			<g>
				<g>
					<polygon class="st4" points="963.4,194.8 965.5,200.8 960.5,197.1 960.4,197 960.4,197.1 955.4,200.8 957.5,194.8 957.6,194.8 
						957.5,194.8 952.4,191.3 958.6,191.3 960.3,185.3 962.2,191.3 962.2,191.3 962.2,191.3 968.5,191.3 963.3,194.8 963.3,194.8 
											"/>
				</g>
			</g>
			<g>
				<g>
					<polygon class="st4" points="963.4,225.8 965.5,231.7 960.5,228 960.4,227.9 960.4,228 955.4,231.7 957.5,225.8 957.6,225.7 
						957.5,225.7 952.4,222.2 958.6,222.2 960.3,216.3 962.2,222.2 962.2,222.2 962.2,222.2 968.5,222.2 963.3,225.7 963.3,225.7 
											"/>
				</g>
			</g>
			<g>
				<g>
					<polygon class="st4" points="963.4,256.7 965.5,262.6 960.5,258.9 960.4,258.9 960.4,258.9 955.4,262.6 957.5,256.7 
						957.6,256.7 957.5,256.7 952.4,253.2 958.6,253.2 960.3,247.2 962.2,253.2 962.2,253.2 962.2,253.2 968.5,253.2 963.3,256.7 
						963.3,256.7 					"/>
				</g>
			</g>
		</g>
		<g>
			<g>
				<g>
					<polygon class="st4" points="1109.9,179.4 1112,185.3 1106.9,181.6 1106.9,181.5 1106.9,181.6 1101.9,185.3 1104,179.4 
						1104.1,179.3 1104,179.3 1098.8,175.8 1105.1,175.8 1106.8,169.8 1108.7,175.8 1108.7,175.8 1108.7,175.8 1115,175.8 
						1109.8,179.3 1109.8,179.3 					"/>
				</g>
			</g>
			<g>
				<g>
					<polygon class="st4" points="1109.9,210.3 1112,216.2 1106.9,212.5 1106.9,212.5 1106.9,212.5 1101.9,216.2 1104,210.3 
						1104.1,210.2 1104,210.2 1098.8,206.8 1105.1,206.8 1106.8,200.8 1108.7,206.8 1108.7,206.8 1108.7,206.8 1115,206.8 
						1109.8,210.2 1109.8,210.2 					"/>
				</g>
			</g>
			<g>
				<g>
					<polygon class="st4" points="1109.9,241.3 1112,247.2 1106.9,243.5 1106.9,243.4 1106.9,243.5 1101.9,247.2 1104,241.3 
						1104.1,241.2 1104,241.2 1098.8,237.7 1105.1,237.7 1106.8,231.8 1108.7,237.7 1108.7,237.7 1108.7,237.7 1115,237.7 
						1109.8,241.2 1109.8,241.2 					"/>
				</g>
			</g>
			<g>
				<g>
					<polygon class="st4" points="1109.9,272.2 1112,278.2 1106.9,274.5 1106.9,274.4 1106.9,274.5 1101.9,278.2 1104,272.2 
						1104.1,272.2 1104,272.2 1098.8,268.7 1105.1,268.7 1106.8,262.8 1108.7,268.7 1108.7,268.8 1108.7,268.7 1115,268.7 
						1109.8,272.2 1109.8,272.2 					"/>
				</g>
			</g>
			<g>
				<g>
					<polygon class="st4" points="1109.9,148.6 1112,154.5 1106.9,150.8 1106.9,150.7 1106.9,150.8 1101.9,154.5 1104,148.6 
						1104.1,148.5 1104,148.5 1098.8,145 1105.1,145 1106.8,139 1108.7,145 1108.7,145 1108.7,145 1115,145 1109.8,148.5 
						1109.8,148.5 					"/>
				</g>
			</g>
		</g>
		<g>
			<g>
				<g>
					<polygon class="st4" points="1077.7,179.4 1079.8,185.3 1074.8,181.6 1074.8,181.5 1074.8,181.6 1069.7,185.3 1071.8,179.4 
						1071.9,179.3 1071.9,179.3 1066.7,175.8 1072.9,175.8 1074.6,169.8 1076.5,175.8 1076.5,175.8 1076.6,175.8 1082.9,175.8 
						1077.7,179.3 1077.7,179.3 					"/>
				</g>
			</g>
			<g>
				<g>
					<polygon class="st4" points="1077.7,210.3 1079.8,216.2 1074.8,212.5 1074.8,212.5 1074.8,212.5 1069.7,216.2 1071.8,210.3 
						1071.9,210.2 1071.9,210.2 1066.7,206.8 1072.9,206.8 1074.6,200.8 1076.5,206.8 1076.5,206.8 1076.6,206.8 1082.9,206.8 
						1077.7,210.2 1077.7,210.2 					"/>
				</g>
			</g>
			<g>
				<g>
					<polygon class="st4" points="1077.7,241.3 1079.8,247.2 1074.8,243.5 1074.8,243.4 1074.8,243.5 1069.7,247.2 1071.8,241.3 
						1071.9,241.2 1071.9,241.2 1066.7,237.7 1072.9,237.7 1074.6,231.8 1076.5,237.7 1076.5,237.7 1076.6,237.7 1082.9,237.7 
						1077.7,241.2 1077.7,241.2 					"/>
				</g>
			</g>
			<g>
				<g>
					<polygon class="st4" points="1077.7,272.2 1079.8,278.2 1074.8,274.5 1074.8,274.4 1074.8,274.5 1069.7,278.2 1071.8,272.2 
						1071.9,272.2 1071.9,272.2 1066.7,268.7 1072.9,268.7 1074.6,262.8 1076.5,268.7 1076.5,268.8 1076.6,268.7 1082.9,268.7 
						1077.7,272.2 1077.7,272.2 					"/>
				</g>
			</g>
			<g>
				<g>
					<polygon class="st4" points="1077.7,148.6 1079.8,154.5 1074.8,150.8 1074.8,150.7 1074.8,150.8 1069.7,154.5 1071.8,148.6 
						1071.9,148.5 1071.9,148.5 1066.7,145 1072.9,145 1074.6,139 1076.5,145 1076.5,145 1076.6,145 1082.9,145 1077.7,148.5 
						1077.7,148.5 					"/>
				</g>
			</g>
		</g>
		<g>
			<g>
				<g>
					<polygon class="st4" points="1044.2,179.4 1046.4,185.3 1041.3,181.6 1041.3,181.5 1041.3,181.6 1036.3,185.3 1038.4,179.4 
						1038.4,179.3 1038.4,179.3 1033.2,175.8 1039.5,175.8 1041.2,169.8 1043.1,175.8 1043.1,175.8 1043.1,175.8 1049.4,175.8 
						1044.2,179.3 1044.2,179.3 					"/>
				</g>
			</g>
			<g>
				<g>
					<polygon class="st4" points="1044.2,210.3 1046.4,216.2 1041.3,212.5 1041.3,212.5 1041.3,212.5 1036.3,216.2 1038.4,210.3 
						1038.4,210.2 1038.4,210.2 1033.2,206.8 1039.5,206.8 1041.2,200.8 1043.1,206.8 1043.1,206.8 1043.1,206.8 1049.4,206.8 
						1044.2,210.2 1044.2,210.2 					"/>
				</g>
			</g>
			<g>
				<g>
					<polygon class="st4" points="1044.2,241.3 1046.4,247.2 1041.3,243.5 1041.3,243.4 1041.3,243.5 1036.3,247.2 1038.4,241.3 
						1038.4,241.2 1038.4,241.2 1033.2,237.7 1039.5,237.7 1041.2,231.8 1043.1,237.7 1043.1,237.7 1043.1,237.7 1049.4,237.7 
						1044.2,241.2 1044.2,241.2 					"/>
				</g>
			</g>
			<g>
				<g>
					<polygon class="st4" points="1044.2,272.2 1046.4,278.2 1041.3,274.5 1041.3,274.4 1041.3,274.5 1036.3,278.2 1038.4,272.2 
						1038.4,272.2 1038.4,272.2 1033.2,268.7 1039.5,268.7 1041.2,262.8 1043.1,268.7 1043.1,268.8 1043.1,268.7 1049.4,268.7 
						1044.2,272.2 1044.2,272.2 					"/>
				</g>
			</g>
			<g>
				<g>
					<polygon class="st4" points="1044.2,148.6 1046.4,154.5 1041.3,150.8 1041.3,150.7 1041.3,150.8 1036.3,154.5 1038.4,148.6 
						1038.4,148.5 1038.4,148.5 1033.2,145 1039.5,145 1041.2,139 1043.1,145 1043.1,145 1043.1,145 1049.4,145 1044.2,148.5 
						1044.2,148.5 					"/>
				</g>
			</g>
		</g>
		<g>
			<g>
				<g>
					<polygon class="st4" points="1011.5,179.4 1013.6,185.3 1008.6,181.6 1008.6,181.5 1008.6,181.6 1003.6,185.3 1005.7,179.4 
						1005.7,179.3 1005.7,179.3 1000.5,175.8 1006.7,175.8 1008.4,169.8 1010.4,175.8 1010.4,175.8 1010.4,175.8 1016.7,175.8 
						1011.5,179.3 1011.5,179.3 					"/>
				</g>
			</g>
			<g>
				<g>
					<polygon class="st4" points="1011.5,210.3 1013.6,216.2 1008.6,212.5 1008.6,212.5 1008.6,212.5 1003.6,216.2 1005.7,210.3 
						1005.7,210.2 1005.7,210.2 1000.5,206.8 1006.7,206.8 1008.4,200.8 1010.4,206.8 1010.4,206.8 1010.4,206.8 1016.7,206.8 
						1011.5,210.2 1011.5,210.2 					"/>
				</g>
			</g>
			<g>
				<g>
					<polygon class="st4" points="1011.5,241.3 1013.6,247.2 1008.6,243.5 1008.6,243.4 1008.6,243.5 1003.6,247.2 1005.7,241.3 
						1005.7,241.2 1005.7,241.2 1000.5,237.7 1006.7,237.7 1008.4,231.8 1010.4,237.7 1010.4,237.7 1010.4,237.7 1016.7,237.7 
						1011.5,241.2 1011.5,241.2 					"/>
				</g>
			</g>
			<g>
				<g>
					<polygon class="st4" points="1011.5,272.2 1013.6,278.2 1008.6,274.5 1008.6,274.4 1008.6,274.5 1003.6,278.2 1005.7,272.2 
						1005.7,272.2 1005.7,272.2 1000.5,268.7 1006.7,268.7 1008.4,262.8 1010.4,268.7 1010.4,268.8 1010.4,268.7 1016.7,268.7 
						1011.5,272.2 1011.5,272.2 					"/>
				</g>
			</g>
			<g>
				<g>
					<polygon class="st4" points="1011.5,148.6 1013.6,154.5 1008.6,150.8 1008.6,150.7 1008.6,150.8 1003.6,154.5 1005.7,148.6 
						1005.7,148.5 1005.7,148.5 1000.5,145 1006.7,145 1008.4,139 1010.4,145 1010.4,145 1010.4,145 1016.7,145 1011.5,148.5 
						1011.5,148.5 					"/>
				</g>
			</g>
		</g>
		<g>
			<g>
				<g>
					<polygon class="st4" points="979.5,179.4 981.6,185.3 976.6,181.6 976.6,181.5 976.6,181.6 971.5,185.3 973.6,179.4 
						973.7,179.3 973.7,179.3 968.5,175.8 974.7,175.8 976.4,169.8 978.4,175.8 978.4,175.8 978.4,175.8 984.7,175.8 979.5,179.3 
						979.4,179.3 					"/>
				</g>
			</g>
			<g>
				<g>
					<polygon class="st4" points="979.5,210.3 981.6,216.2 976.6,212.5 976.6,212.5 976.6,212.5 971.5,216.2 973.6,210.3 
						973.7,210.2 973.7,210.2 968.5,206.8 974.7,206.8 976.4,200.8 978.4,206.8 978.4,206.8 978.4,206.8 984.7,206.8 979.5,210.2 
						979.4,210.2 					"/>
				</g>
			</g>
			<g>
				<g>
					<polygon class="st4" points="979.5,241.3 981.6,247.2 976.6,243.5 976.6,243.4 976.6,243.5 971.5,247.2 973.6,241.3 
						973.7,241.2 973.7,241.2 968.5,237.7 974.7,237.7 976.4,231.8 978.4,237.7 978.4,237.7 978.4,237.7 984.7,237.7 979.5,241.2 
						979.4,241.2 					"/>
				</g>
			</g>
			<g>
				<g>
					<polygon class="st4" points="979.5,272.2 981.6,278.2 976.6,274.5 976.6,274.4 976.6,274.5 971.5,278.2 973.6,272.2 
						973.7,272.2 973.7,272.2 968.5,268.7 974.7,268.7 976.4,262.8 978.4,268.7 978.4,268.8 978.4,268.7 984.7,268.7 979.5,272.2 
						979.4,272.2 					"/>
				</g>
			</g>
			<g>
				<g>
					<polygon class="st4" points="979.5,148.6 981.6,154.5 976.6,150.8 976.6,150.7 976.6,150.8 971.5,154.5 973.6,148.6 
						973.7,148.5 973.7,148.5 968.5,145 974.7,145 976.4,139 978.4,145 978.4,145 978.4,145 984.7,145 979.5,148.5 979.4,148.5 
											"/>
				</g>
			</g>
		</g>
		<g>
			<g>
				<g>
					<polygon class="st4" points="946.9,179.4 949,185.3 944,181.6 944,181.5 944,181.6 939,185.3 941.1,179.4 941.1,179.3 
						941.1,179.3 935.9,175.8 942.1,175.8 943.8,169.8 945.8,175.8 945.8,175.8 945.8,175.8 952.1,175.8 946.9,179.3 946.9,179.3 
											"/>
				</g>
			</g>
			<g>
				<g>
					<polygon class="st4" points="946.9,210.3 949,216.2 944,212.5 944,212.5 944,212.5 939,216.2 941.1,210.3 941.1,210.2 
						941.1,210.2 935.9,206.8 942.1,206.8 943.8,200.8 945.8,206.8 945.8,206.8 945.8,206.8 952.1,206.8 946.9,210.2 946.9,210.2 
											"/>
				</g>
			</g>
			<g>
				<g>
					<polygon class="st4" points="946.9,241.3 949,247.2 944,243.5 944,243.4 944,243.5 939,247.2 941.1,241.3 941.1,241.2 
						941.1,241.2 935.9,237.7 942.1,237.7 943.8,231.8 945.8,237.7 945.8,237.7 945.8,237.7 952.1,237.7 946.9,241.2 946.9,241.2 
											"/>
				</g>
			</g>
			<g>
				<g>
					<polygon class="st4" points="946.9,272.2 949,278.2 944,274.5 944,274.4 944,274.5 939,278.2 941.1,272.2 941.1,272.2 
						941.1,272.2 935.9,268.7 942.1,268.7 943.8,262.8 945.8,268.7 945.8,268.8 945.8,268.7 952.1,268.7 946.9,272.2 946.9,272.2 
											"/>
				</g>
			</g>
			<g>
				<g>
					<polygon class="st4" points="946.9,148.6 949,154.5 944,150.8 944,150.7 944,150.8 939,154.5 941.1,148.6 941.1,148.5 
						941.1,148.5 935.9,145 942.1,145 943.8,139 945.8,145 945.8,145 945.8,145 952.1,145 946.9,148.5 946.9,148.5 					"/>
				</g>
			</g>
		</g>
	</g>
</g>
</svg>
