<?xml version="1.0" encoding="utf-8"?>
<!-- Generator: Adobe Illustrator 26.0.0, SVG Export Plug-In . SVG Version: 6.00 Build 0)  -->
<svg version="1.1" id="Layer_1" xmlns="http://www.w3.org/2000/svg" xmlns:xlink="http://www.w3.org/1999/xlink" x="0px" y="0px"
	 viewBox="0 0 2348.1 1052.2" style="enable-background:new 0 0 2348.1 1052.2;" xml:space="preserve">
<style type="text/css">
	.st0{enable-background:new    ;}
	.st1{fill:#CED4DA;}
	.st2{fill:#3E3F3F;}
	.st3{fill:#2E4593;}
	.st4{fill:#FFFFFF;}
</style>
<text transform="matrix(1 0 0 1 787.2357 -1068.2344)" class="st1" style="font-family:'Montserrat-Black'; font-size:271.6093px;">R. Dominicana</text>
<text transform="matrix(1 0 0 1 849.7514 1429.9271)" class="st1" style="font-family:'Montserrat-Black'; font-size:271.6093px;">Perú</text>
<g class="st0">
	<path class="st1" d="M558.6,773.4h-64.1V583.3h64.1V773.4z M622.1,703.3h-67.9v-52.7h67.9V703.3z M617.8,583.3h64.1v190.1h-64.1
		V583.3z"/>
	<path class="st1" d="M789.4,776.1c-16.8,0-31.7-3.3-44.7-9.9c-12.9-6.6-23.1-15.7-30.6-27.3c-7.4-11.6-11.1-24.9-11.1-39.9
		c0-15,3.7-28.3,11.1-39.9c7.4-11.6,17.6-20.6,30.6-27.2c12.9-6.5,27.8-9.8,44.7-9.8s31.8,3.3,44.8,9.8s23.2,15.6,30.6,27.2
		c7.3,11.6,11,24.9,11,39.9c0,15-3.7,28.3-11,39.9c-7.3,11.6-17.5,20.7-30.6,27.3C821.2,772.8,806.3,776.1,789.4,776.1z
		 M789.4,728.3c4.5,0,8.6-1.1,12.2-3.3c3.6-2.2,6.5-5.5,8.7-9.9c2.2-4.4,3.3-9.8,3.3-16.2c0-6.5-1.1-11.9-3.3-16.2
		c-2.2-4.3-5.1-7.5-8.7-9.6c-3.6-2.2-7.7-3.3-12.2-3.3c-4.5,0-8.6,1.1-12.2,3.3c-3.6,2.2-6.5,5.4-8.7,9.6c-2.2,4.3-3.3,9.6-3.3,16.2
		c0,6.3,1.1,11.7,3.3,16.2c2.2,4.4,5.1,7.7,8.7,9.9C780.8,727.2,784.9,728.3,789.4,728.3z"/>
	<path class="st1" d="M998.3,622.1c11.4,0,21.7,2.3,31,6.9s16.5,11.8,21.9,21.6c5.3,9.8,8,22.5,8,38v84.7h-61.4v-74.1
		c0-9.2-1.6-15.8-4.9-19.7c-3.3-3.9-7.7-5.8-13.3-5.8c-4.2,0-8,1-11.5,2.9c-3.5,1.9-6.3,5-8.4,9.4c-2.1,4.3-3.1,10.2-3.1,17.7v69.8
		h-61.4V624.9h58.4v43.5l-11.7-12.5c5.8-11.2,13.6-19.6,23.5-25.3C975.2,624.9,986.2,622.1,998.3,622.1z"/>
	<path class="st1" d="M1153.6,776.1c-12.9,0-24.8-3.1-35.7-9.4c-11-6.2-19.7-15.1-26.2-26.6c-6.5-11.5-9.8-25.2-9.8-41.1
		c0-15.9,3.3-29.6,9.8-41.1c6.5-11.5,15.3-20.3,26.2-26.5c11-6.2,22.9-9.2,35.7-9.2c13,0,23.7,2.8,32,8.3
		c8.3,5.5,14.5,13.9,18.5,25.3c4,11.3,6,25.8,6,43.3c0,17.7-1.9,32.3-5.6,43.7c-3.7,11.4-9.7,19.8-17.9,25.3
		C1178.4,773.4,1167.4,776.1,1153.6,776.1z M1168.3,728.3c4.5,0,8.6-1.1,12.2-3.3c3.6-2.2,6.5-5.5,8.7-9.9c2.2-4.4,3.3-9.8,3.3-16.2
		c0-6.5-1.1-11.9-3.3-16.2c-2.2-4.3-5.1-7.5-8.7-9.6c-3.6-2.2-7.7-3.3-12.2-3.3c-4.5,0-8.6,1.1-12.2,3.3c-3.6,2.2-6.5,5.4-8.7,9.6
		c-2.2,4.3-3.3,9.6-3.3,16.2c0,6.3,1.1,11.7,3.3,16.2c2.2,4.4,5.1,7.7,8.7,9.9C1159.7,727.2,1163.8,728.3,1168.3,728.3z
		 M1194.4,773.4v-20.1l-0.3-54.3l-2.7-54.3v-72.8h61.4v201.5H1194.4z"/>
	<path class="st1" d="M1341.9,776.1c-11.8,0-22.4-2.4-31.9-7.2c-9.5-4.8-17-12.3-22.4-22.5c-5.4-10.2-8.1-23.4-8.1-39.5v-82h61.4
		v71.4c0,10.5,1.7,17.8,5.2,22c3.4,4.2,8.1,6.2,14.1,6.2c3.6,0,7-1,10.2-2.9c3.2-1.9,5.7-5.1,7.7-9.5c2-4.4,3-10.3,3-17.5v-69.8
		h61.4v148.6H1384v-42.9l11.7,11.7c-5.3,11.6-12.7,20.1-22.4,25.7C1363.6,773.4,1353.1,776.1,1341.9,776.1z"/>
	<path class="st1" d="M1469.5,773.4V624.9h58.4v44.8l-9.5-12.8c4.5-11.6,11.8-20.3,21.7-26.1c10-5.8,21.9-8.7,35.9-8.7v54.3
		c-2.7-0.4-5.1-0.6-7.2-0.8c-2.1-0.2-4.2-0.3-6.4-0.3c-9.2,0-16.8,2.4-22.7,7.2c-5.9,4.8-8.8,13.1-8.8,24.9v66H1469.5z"/>
	<path class="st1" d="M1633,776.1c-12.1,0-22.3-2.1-30.4-6.2c-8.1-4.2-14.3-9.7-18.5-16.7c-4.2-7-6.2-14.7-6.2-23.2
		c0-9.6,2.4-17.7,7.3-24.4c4.9-6.7,12.4-11.8,22.4-15.2c10-3.4,22.8-5.2,38.2-5.2h31v29.6h-21.2c-6.5,0-11.3,1-14.3,3.1
		c-3,2.1-4.5,5.2-4.5,9.4c0,3.4,1.3,6.3,3.9,8.6c2.6,2.3,6.2,3.4,10.7,3.4c4.2,0,8-1.1,11.5-3.4c3.5-2.3,6.1-5.8,7.7-10.7l7.9,18.2
		c-2.4,11-7.3,19.3-14.9,24.7C1656.1,773.4,1645.9,776.1,1633,776.1z M1675.1,773.4v-26.3l-4.3-7.1v-50c0-7.2-2.2-12.8-6.7-16.6
		c-4.4-3.8-11.6-5.7-21.6-5.7c-6.7,0-13.5,1-20.4,3.1c-6.9,2.1-12.8,4.9-17.7,8.6L1585,639c8.7-5.4,19.1-9.6,31.2-12.5
		c12.1-2.9,24-4.3,35.6-4.3c25.5,0,45.3,5.7,59.3,17.1c14,11.4,21,29.5,21,54.3v79.9H1675.1z"/>
	<path class="st1" d="M1816.9,776.1c-12.7,0-25.2-1.4-37.5-4.1c-12.3-2.7-22.3-6.2-29.9-10.6l16.8-40.5c7.1,4.2,15.3,7.4,24.6,9.8
		c9.3,2.4,18.4,3.5,27.3,3.5c7.4,0,12.4-0.6,15.1-1.9c2.6-1.3,3.9-3,3.9-5.2s-1.5-3.8-4.6-4.8c-3.1-1-7.2-1.8-12.2-2.3
		c-5.1-0.5-10.6-1.2-16.7-2c-6.1-0.8-12.2-2-18.3-3.7c-6.2-1.6-11.8-4.1-16.8-7.3c-5.1-3.3-9.1-7.6-12.2-13.2
		c-3.1-5.5-4.6-12.5-4.6-21c0-9.4,2.9-17.9,8.6-25.5c5.7-7.6,14.2-13.7,25.5-18.3c11.3-4.6,25.3-6.9,42-6.9c10.9,0,21.7,1,32.6,3
		c10.9,2,20.2,5.1,28,9.2l-16.8,40.5c-7.6-4.2-15.1-7-22.4-8.6c-7.3-1.5-14.2-2.3-20.5-2.3c-7.8,0-13.1,0.7-15.9,2.2
		c-2.8,1.5-4.2,3.1-4.2,4.9c0,2.2,1.5,3.8,4.6,4.9c3.1,1.1,7.2,1.9,12.2,2.4c5.1,0.5,10.6,1.2,16.7,2c6.1,0.8,12.1,2.1,18.2,3.8
		c6.1,1.7,11.6,4.2,16.7,7.5c5.1,3.3,9.1,7.7,12.2,13.2c3.1,5.5,4.6,12.5,4.6,21c0,8.9-2.8,17.2-8.4,24.9
		c-5.6,7.7-14.1,13.9-25.5,18.5S1834.1,776.1,1816.9,776.1z"/>
</g>
<rect x="0.7" y="949.5" class="st2" width="2349" height="103.9"/>
<rect x="2969.6" y="1330" class="st1" width="2353.9" height="1051.1"/>
<g>
	<g>
		<g>
			<rect x="929.2" y="128.6" class="st3" width="532.1" height="334"/>
		</g>
		<g>
			<rect x="929.2" y="290.1" class="st3" width="532.1" height="172.5"/>
		</g>
		<g>
			<rect x="929.2" y="238.5" class="st4" width="532.3" height="112.4"/>
		</g>
	</g>
	<g>
		<g>
			<g>
				<polygon class="st3" points="1208.4,297.6 1212.7,309.7 1202.4,302.1 1202.4,302.1 1202.3,302.1 1192.1,309.7 1196.4,297.6 
					1196.5,297.5 1196.4,297.5 1185.8,290.3 1198.6,290.3 1202.1,278.1 1206,290.3 1206,290.4 1206,290.3 1218.9,290.3 
					1208.3,297.5 1208.3,297.5 				"/>
			</g>
		</g>
		<g>
			<g>
				<g>
					<polygon class="st3" points="1140.6,265.2 1144.9,277.3 1134.6,269.7 1134.6,269.6 1134.6,269.7 1124.3,277.3 1128.6,265.2 
						1128.7,265.1 1128.7,265.1 1118.1,257.9 1130.8,257.9 1134.3,245.7 1138.3,257.9 1138.3,258 1138.3,257.9 1151.2,257.9 
						1140.5,265.1 1140.5,265.1 					"/>
				</g>
			</g>
			<g>
				<g>
					<polygon class="st3" points="1140.6,330.6 1144.9,342.7 1134.6,335.1 1134.6,335 1134.6,335.1 1124.3,342.7 1128.6,330.6 
						1128.7,330.5 1128.7,330.5 1118.1,323.3 1130.8,323.3 1134.3,311.1 1138.3,323.3 1138.3,323.4 1138.3,323.3 1151.2,323.3 
						1140.5,330.5 1140.5,330.5 					"/>
				</g>
			</g>
		</g>
		<g>
			<g>
				<g>
					<polygon class="st3" points="1272.6,265.2 1276.9,277.3 1266.6,269.7 1266.6,269.6 1266.6,269.7 1256.3,277.3 1260.6,265.2 
						1260.7,265.1 1260.6,265.1 1250,257.9 1262.8,257.9 1266.3,245.7 1270.2,257.9 1270.2,258 1270.3,257.9 1283.1,257.9 
						1272.5,265.1 1272.5,265.1 					"/>
				</g>
			</g>
			<g>
				<g>
					<polygon class="st3" points="1272.6,330.6 1276.9,342.7 1266.6,335.1 1266.6,335 1266.6,335.1 1256.3,342.7 1260.6,330.6 
						1260.7,330.5 1260.6,330.5 1250,323.3 1262.8,323.3 1266.3,311.1 1270.2,323.3 1270.2,323.4 1270.3,323.3 1283.1,323.3 
						1272.5,330.5 1272.5,330.5 					"/>
				</g>
			</g>
		</g>
	</g>
</g>
</svg>
