<?xml version="1.0" encoding="utf-8"?>
<!-- Generator: Adobe Illustrator 26.0.0, SVG Export Plug-In . SVG Version: 6.00 Build 0)  -->
<svg version="1.1" id="Capa_1" xmlns="http://www.w3.org/2000/svg" xmlns:xlink="http://www.w3.org/1999/xlink" x="0px" y="0px"
	 viewBox="0 0 359.7 39.1" style="enable-background:new 0 0 359.7 39.1;" xml:space="preserve">
<style type="text/css">
	.st0{fill:#FED136;}
	.st1{font-family:'Montserrat-SemiBold';}
	.st2{font-size:45.4905px;}
	.st3{font-family:'Montserrat-Regular';}
	.st4{font-size:27.217px;}
</style>
<text transform="matrix(1 0 0 1 49.6978 33.6387)" class="st0 st1 st2">UXUI.</text>
<text transform="matrix(1 0 0 1 180.4678 33.3076)" class="st0 st3 st4">diego.vizueta</text>
<g>
	<g>
		<path class="st0" d="M42.7,2c0,2.1-0.2,4.2-0.6,6.3c-0.3,1.5-0.7,3.1-1.1,4.5l0,0C38.7,20.2,34,26.6,27.8,31c0,0,0,0,0,0
			c-3.2,2.3-6.8,4.1-10.7,5.2c-0.9,0.3-1.7,0.5-2.6,0.7l-1.1-2.7l0,0l0-0.1l-1.4-3.2l0-0.1c1.1-0.2,2.3-0.5,3.4-0.8c0,0,0,0,0,0
			c1.8-0.5,3.6-1.3,5.3-2.1c1.2-0.6,2.4-1.4,3.6-2.2c1.4-1,2.7-2.2,4-3.4c3.7-3.9,6.4-8.8,7.6-14.2c0.4-1.9,0.6-4,0.6-6
			c0-0.1,0-0.1,0-0.2h6.5C42.7,1.9,42.7,1.9,42.7,2z"/>
	</g>
	<g>
		<g>
			<path class="st0" d="M10.4,1.9c-3.5,0-6.8,1-9.6,2.8L2,7.3l0.5,1.2L3.5,11c1.9-1.5,4.3-2.4,6.9-2.4c6.1,0,11.1,5,11.1,11.1
				c0,5.6-4.2,10.3-9.7,11l0,0.1l0,0.1l1.4,3.2l0,0.1l0,0l1.1,2.7l0.1,0.2c0.9-0.2,1.7-0.5,2.6-0.8c1.8-0.7,3.5-1.8,5-3.1
				c0,0,0.1-0.1,0.1-0.1c0,0,0,0,0,0c1.6-1.4,2.9-3.1,3.9-5c0,0,0,0,0-0.1v0c0.1-0.1,0.1-0.3,0.2-0.4c0.8-1.7,1.4-3.5,1.7-5.4
				c0.1-0.8,0.2-1.7,0.2-2.5C28.2,9.9,20.2,1.9,10.4,1.9z"/>
		</g>
	</g>
</g>
<text transform="matrix(1 0 0 1 51.2096 -37.7944)" class="st1 st2">UXUI.</text>
<text transform="matrix(1 0 0 1 181.9796 -38.1255)" class="st3 st4">diegov</text>
<g>
	<g>
		<path d="M44.3-69.5c0,2.1-0.2,4.2-0.6,6.3c-0.3,1.5-0.7,3.1-1.1,4.5l0,0c-2.4,7.4-7.1,13.7-13.2,18.2c0,0,0,0,0,0
			c-3.2,2.3-6.8,4.1-10.7,5.2c-0.9,0.3-1.7,0.5-2.6,0.7l-1.1-2.7l0,0l0-0.1l-1.4-3.2l0-0.1c1.1-0.2,2.3-0.5,3.4-0.8c0,0,0,0,0,0
			c1.8-0.5,3.6-1.3,5.3-2.1c1.2-0.6,2.4-1.4,3.6-2.2c1.4-1,2.7-2.2,4-3.4c3.7-3.9,6.4-8.8,7.6-14.2c0.4-1.9,0.6-4,0.6-6
			c0-0.1,0-0.1,0-0.2h6.5C44.3-69.6,44.3-69.5,44.3-69.5z"/>
	</g>
	<g>
		<g>
			<path d="M11.9-69.5c-3.5,0-6.8,1-9.6,2.8l1.1,2.6L4-62.9L5-60.4c1.9-1.5,4.3-2.4,6.9-2.4c6.1,0,11.1,5,11.1,11.1
				c0,5.6-4.2,10.3-9.7,11l0,0.1l0,0.1l1.4,3.2l0,0.1l0,0l1.1,2.7l0.1,0.2c0.9-0.2,1.7-0.5,2.6-0.8c1.8-0.7,3.5-1.8,5-3.1
				c0,0,0.1-0.1,0.1-0.1c0,0,0,0,0,0c1.6-1.4,2.9-3.1,3.9-5c0,0,0,0,0-0.1v0c0.1-0.1,0.1-0.3,0.2-0.4c0.8-1.7,1.4-3.5,1.7-5.4
				c0.1-0.8,0.2-1.7,0.2-2.5C29.8-61.5,21.8-69.5,11.9-69.5z"/>
		</g>
	</g>
</g>
</svg>
