<?xml version="1.0" encoding="utf-8"?>
<!-- Generator: Adobe Illustrator 26.0.0, SVG Export Plug-In . SVG Version: 6.00 Build 0)  -->
<svg version="1.1" id="Layer_1" xmlns="http://www.w3.org/2000/svg" xmlns:xlink="http://www.w3.org/1999/xlink" x="0px" y="0px"
	 viewBox="0 0 2348.1 1052.2" style="enable-background:new 0 0 2348.1 1052.2;" xml:space="preserve">
<style type="text/css">
	.st0{fill:#CED4DA;}
	.st1{fill:#3E3F3F;}
	.st2{fill:#FFFFFF;}
	.st3{fill:#F42525;}
</style>
<g>
	<path class="st0" d="M853.9,776.8V586.7h91.5c17.7,0,33.1,2.9,46,8.7s23,14.1,30,24.9c7.1,10.8,10.6,23.5,10.6,38.2
		s-3.5,27.3-10.6,38s-17.1,19-30,24.9s-28.3,8.8-46,8.8h-56l28.5-27.4v74.1h-64V776.8z M918,709.7l-28.5-29.1h51.9
		c8.9,0,15.4-2,19.7-6s6.4-9.4,6.4-16.3c0-6.9-2.1-12.3-6.4-16.3c-4.3-4-10.8-6-19.7-6h-51.9l28.5-29.1V709.7z"/>
	<path class="st0" d="M1133.1,779.5c-18.1,0-33.9-3.3-47.4-10s-23.9-15.9-31.4-27.6c-7.4-11.7-11.1-24.9-11.1-39.5
		c0-15,3.7-28.3,11-39.9c7.3-11.6,17.4-20.6,30.1-27.2s27.1-9.8,43.1-9.8c14.7,0,28.2,2.9,40.6,8.7s22.4,14.4,29.9,25.8
		c7.5,11.4,11.3,25.5,11.3,42.4c0,2.2-0.1,4.6-0.3,7.2c-0.2,2.6-0.4,5-0.5,7.2H1094v-29.6h81.8l-23.1,7.9c0-5.8-1-10.7-3.1-14.8
		s-4.9-7.2-8.6-9.5c-3.6-2.3-8-3.4-13-3.4c-5.1,0-9.5,1.1-13.2,3.4c-3.7,2.3-6.6,5.4-8.6,9.5s-3,9-3,14.8v9.2
		c0,6.3,1.3,11.8,3.8,16.3s6.2,7.9,10.9,10.2c4.7,2.3,10.4,3.4,17.1,3.4c6.9,0,12.5-0.9,17-2.7c4.4-1.8,9.1-4.5,14-8.1l32,32.3
		c-7.2,7.8-16.2,13.7-26.8,17.8S1148,779.5,1133.1,779.5z"/>
	<path class="st0" d="M1228.4,776.8V628.3h58.4v44.8l-9.5-12.8c4.5-11.6,11.8-20.3,21.7-26.1c10-5.8,21.9-8.7,35.9-8.7v54.3
		c-2.7-0.4-5.1-0.6-7.2-0.8s-4.2-0.3-6.4-0.3c-9.2,0-16.8,2.4-22.7,7.2c-5.9,4.8-8.8,13.1-8.8,24.9v66L1228.4,776.8L1228.4,776.8z"
		/>
	<path class="st0" d="M1414.2,779.5c-11.8,0-22.4-2.4-31.9-7.2s-17-12.3-22.4-22.5s-8.1-23.4-8.1-39.5v-82h61.4v71.4
		c0,10.5,1.7,17.8,5.2,22c3.4,4.2,8.1,6.2,14.1,6.2c3.6,0,7-1,10.2-2.9s5.7-5.1,7.7-9.5s3-10.3,3-17.5v-69.8h61.4v148.6h-58.4v-42.9
		l11.7,11.7c-5.3,11.6-12.7,20.1-22.4,25.7C1435.9,776.8,1425.4,779.5,1414.2,779.5z M1404.7,612l35.9-43.5h58.4l-53.5,43.5H1404.7z
		"/>
</g>
<text transform="matrix(1 0 0 1 849.7514 1429.9271)" class="st0" style="font-family:'Montserrat-Black'; font-size:271.6093px;">Perú</text>
<rect x="0.7" y="949.5" class="st1" width="2349" height="103.9"/>
<g>
	<g>
		<rect x="1103.1" y="131.1" class="st2" width="175.7" height="329.1"/>
	</g>
	<g>
		<rect x="930.1" y="131.1" class="st3" width="175.7" height="329.1"/>
	</g>
	<g>
		<rect x="1273.7" y="131.1" class="st3" width="175.7" height="329.1"/>
	</g>
</g>
</svg>
